D:\PredSimResults\Vitruvian_Man\IG_v14ms_ATx70.mot
version=1
nRows=7
nColumns=31
inDegrees=yes
endheader
                time	         pelvis_tilt	           pelvis_tx	           pelvis_ty	       hip_flexion_r	        knee_angle_r	       ankle_angle_r	       hip_flexion_l	        knee_angle_l	       ankle_angle_l	    lumbar_extension	          arm_flex_r	          arm_flex_l	hamstrings_r/activation	bifemsh_r/activation	glut_max_r/activation	iliopsoas_r/activation	rect_fem_r/activation	  vasti_r/activation	gastroc_r/activation	 soleus_r/activation	tib_ant_r/activation	hamstrings_l/activation	bifemsh_l/activation	glut_max_l/activation	iliopsoas_l/activation	rect_fem_l/activation	  vasti_l/activation	gastroc_l/activation	 soleus_l/activation	tib_ant_l/activation	
          0.00000000	         -5.53485990	          0.00000000	          0.97393986	         28.01715519	         -0.14909639	          0.26794053	        -14.20905644	         -5.20707735	          0.30931203	         -6.29452321	          3.31959542	          3.31910620	          0.36519428	          0.05003702	          0.09118155	          0.05002242	          0.06761022	          0.05007279	          0.05251124	          0.06028934	          0.40133528	          0.05291382	          0.18402402	          0.05000548	          0.48267236	          0.05000602	          0.05000587	          0.33690544	          0.27304096	          0.05000271	
          0.01070506	         -6.05455744	          0.01959147	          0.97218907	         27.18120904	          0.81536830	         -0.47389440	        -13.33848367	         -7.72542263	         -0.74407117	         -5.20788659	          2.59886207	          2.59836343	          0.34017694	          0.05003125	          0.10434580	          0.05000952	          0.05738651	          0.05044672	          0.05893662	          0.05892205	          0.44549554	          0.05535183	          0.15616621	          0.05000499	          0.40959504	          0.05000483	          0.05000375	          0.28589705	          0.23170195	          0.05000216	
          0.02141012	         -6.57722980	          0.03946353	          0.97052753	         26.35410617	          1.30956371	         -1.78405398	        -12.22331551	        -10.63608918	         -2.12588044	         -4.06003444	          1.80880626	          1.80830026	          0.30416587	          0.07049968	          0.14774308	          0.05000366	          0.05000652	          0.05004446	          0.05001525	          0.05000224	          0.64195705	          0.05893315	          0.13252507	          0.05000809	          0.34758102	          0.05000340	          0.05000244	          0.24261128	          0.19662143	          0.05000158	
          0.03211517	         -7.10431379	          0.05908458	          0.96936708	         25.52548650	          1.98438738	         -3.94208007	        -10.77997893	        -13.96128657	         -4.10490366	         -2.91940026	          1.02628535	          1.02577447	          0.27911964	          0.05994488	          0.17291762	          0.05000398	          0.05001000	          0.05005569	          0.05000324	          0.05000123	          0.79106546	          0.05002581	          0.11246290	          0.05000463	          0.29495601	          0.05000375	          0.05000175	          0.20587909	          0.16685218	          0.05000135	
          0.04282023	         -7.62701504	          0.07805511	          0.96894374	         24.80083386	          2.50391077	         -5.86469331	         -9.00767294	        -17.62195465	         -6.81361804	         -1.84676384	          0.31111222	          0.31059915	          0.26159278	          0.05087755	          0.20851992	          0.05000262	          0.05000751	          0.05012274	          0.05000334	          0.05000152	          0.87807682	          0.05000823	          0.09543845	          0.05000536	          0.25029861	          0.06506995	          0.05000257	          0.17470834	          0.14159010	          0.32543579	
          0.05352529	         -8.13806255	          0.09614160	          0.96920923	         24.20674840	          2.79187931	         -7.32913052	         -6.99486577	        -21.47628666	         -9.34627133	         -0.87707393	         -0.30134805	         -0.30186071	          0.23658839	          0.05000012	          0.21923831	          0.05000347	          0.05000991	          0.05014111	          0.05000324	          0.05000148	          0.92885161	          0.05000472	          0.08099710	          0.05000311	          0.21240261	          0.15223371	          0.05000135	          0.14825720	          0.12015287	          0.31349935	
          0.06423035	         -8.62673210	          0.11338203	          0.97009430	         23.70917222	          2.89294144	         -8.36952179	         -4.90406044	        -25.26542019	         -9.79009804	         -0.01701644	         -0.81317011	         -0.81367986	          0.21861716	          0.05126573	          0.22662173	          0.05000575	          0.05001338	          0.05007730	          0.05000411	          0.05000189	          0.95848048	          0.05000501	          0.07761471	          0.05000197	          0.18024438	          0.22513607	          0.05000101	          0.12581116	          0.10196139	          0.43350419	
